<?xml version="1.0" encoding="UTF-8"?>
<svg id="Capa_2" data-name="Capa 2" xmlns="http://www.w3.org/2000/svg" viewBox="0 0 724.25 858.76">
  <defs>
    <style>
      .cls-1 {
        fill: #008a5f;
      }

      .cls-2 {
        stroke: #f8c433;
        stroke-miterlimit: 10;
        stroke-width: 5px;
      }

      .cls-2, .cls-3 {
        fill: #f8c433;
      }
    </style>
  </defs>
  <g id="Págian_5" data-name="Págian 5">
    <polygon class="cls-1" points="334.98 513.78 319.81 547.94 373.48 579.85 365.18 601.36 385.42 613.11 451.97 674.17 507.23 721.84 533.69 733.05 620.36 748.78 612.83 806.01 587.85 830.76 521.48 858.76 426.88 795.97 362.98 693.83 261.25 631.64 218.03 636.44 180.4 611.71 101.31 653.85 70.3 653.47 35.21 628.62 5.83 592.33 2.57 556.56 47.65 487.96 50.18 442.3 104.46 435.31 252.32 300.62 363.26 159.96 379.58 10.87 484.27 0 587.6 82.72 710.83 256.08 724.25 375.81 678.8 428.09 594.99 422.43 497.42 428.84 334.98 513.78"/>
    <polygon class="cls-2" points="75.93 438.99 75.93 526.24 152.45 594.7 180.4 611.71 101.31 653.85 70.3 653.47 35.21 628.62 5.83 592.33 2.57 556.56 47.56 483.43 50.18 442.3 75.93 438.99"/>
    <polygon class="cls-3" points="467.86 150.25 558.98 140.73 604.79 156.76 621.32 189.55 616.81 226.35 578.51 284.17 535.7 213.83 467.86 150.25"/>
  </g>
</svg>